<?xml version="1.0" standalone="no"?>
<!DOCTYPE svg PUBLIC "-//W3C//DTD SVG 20010904//EN"
 "http://www.w3.org/TR/2001/REC-SVG-20010904/DTD/svg10.dtd">
<svg version="1.0" xmlns="http://www.w3.org/2000/svg"
 width="225.000000pt" height="225.000000pt" viewBox="0 0 225.000000 225.000000"
 preserveAspectRatio="xMidYMid meet">
<metadata>
Created by potrace 1.14, written by Peter Selinger 2001-2017
</metadata>
<g transform="translate(0.000000,225.000000) scale(0.100000,-0.100000)"
fill="#000000" stroke="none">
<path d="M1460 2183 c-48 -117 -210 -244 -354 -280 -124 -30 -268 10 -355 100
l-45 45 -87 -59 c-150 -101 -329 -188 -541 -264 l-78 -28 0 -112 c0 -101 2
-114 21 -131 36 -32 149 -209 205 -322 30 -59 54 -102 54 -97 1 6 7 -5 15 -24
14 -30 18 -33 45 -27 47 9 168 62 252 110 l77 44 15 -47 c39 -120 105 -437
158 -759 23 -139 37 -201 45 -198 13 5 23 -15 23 -45 0 -17 13 -12 108 35 263
132 616 253 1074 367 l37 9 -39 73 c-44 82 -94 209 -138 351 l-30 98 51 22
c29 13 64 26 80 30 15 3 65 20 112 37 84 31 85 31 85 65 l0 35 -29 -16 c-29
-15 -29 -15 -60 33 -90 141 -221 214 -386 216 -82 1 -95 -2 -144 -29 l-55 -30
70 -6 c38 -4 89 -12 114 -19 61 -16 179 -71 234 -109 55 -38 60 -39 42 -2 -22
41 -78 91 -139 124 -48 26 -49 27 -17 21 83 -15 210 -108 262 -191 19 -31 19
-36 5 -50 -8 -9 -37 -21 -64 -28 l-48 -12 -32 42 c-41 52 -104 98 -186 134
-76 35 -103 41 -236 55 l-103 11 57 43 c32 23 88 57 124 74 66 32 67 32 221
32 136 0 163 -3 220 -23 36 -12 84 -36 107 -52 l43 -28 0 34 c0 24 -6 37 -20
45 -26 14 -26 47 0 170 14 65 20 135 20 221 l0 126 -67 7 c-209 21 -542 130
-662 215 -16 12 -31 21 -33 21 -2 0 -15 -26 -28 -57z m-356 -1598 c21 -22 25
-23 30 -9 5 13 16 16 53 11 26 -3 49 -10 51 -16 2 -6 14 -11 27 -11 49 0 135
-54 135 -84 0 -6 -32 -21 -71 -34 -40 -12 -102 -38 -139 -57 -67 -33 -69 -33
-86 -14 -9 10 -27 19 -39 19 -26 0 -30 15 -41 143 l-7 77 32 0 c21 0 40 -8 55
-25z"/>
</g>
</svg>
